<svg xmlns="http://www.w3.org/2000/svg" viewBox="0 0 1137.54297 449.90292">
	<defs>
		<style>
			.b {
				fill: #457a62;
			}
			.c {
				fill: #7046c6;
			}
			.d {
				fill: #cb2a00;
			}
			.e {
				fill: #f9ce00;
			}
		</style>
	</defs>
	<polygon
		class="b"
		points="754.69 3.633 604.697 3.633 604.697 153.626 651.242 153.626 651.242 50.178 754.69 50.178 754.69 3.633"
	/>
	<polygon
		class="c"
		points="1053.249 153.626 1053.249 3.633 903.257 3.633 903.257 50.178 1006.705 50.178 1006.705 153.626 1053.249 153.626"
	/>
	<polygon
		class="d"
		points="903.257 449.903 1053.249 449.903 1053.249 299.91 1006.705 299.91 1006.705 403.358 903.257 403.358 903.257 449.903"
	/>
	<polygon
		class="e"
		points="604.697 299.91 604.697 449.903 754.69 449.903 754.69 403.358 651.242 403.358 651.242 299.91 604.697 299.91"
	/>
	<path
		class="a"
		d="M108.98438,250.31689H39.66064v56.68946h80.52979v17.249H18.56689V164.29443H119.0918V181.543H39.66064v51.52588h69.32374Z"
		transform="translate(-18.56689 -16.03711)"
	/>
	<path
		class="c"
		d="M108.98438,250.31689H39.66064v56.68946h80.52979v17.249H18.56689V164.29443H119.0918V181.543H39.66064v51.52588h69.32374Z"
		transform="translate(-18.56689 -16.03711)"
	/>
	<path
		class="c"
		d="M184.28955,248.77881l26.36719-43.39551h23.73047l-38.8916,58.77637,40.10009,60.0957H212.085l-27.46582-44.49512-27.46582,44.49512H133.53271l40.1001-60.0957-38.8916-58.77637H158.252Z"
		transform="translate(-18.56689 -16.03711)"
	/>
	<path
		class="c"
		d="M286.15137,176.59912V205.3833h22.19238v15.71045H286.15137v73.811q0,7.1499,2.96631,10.7246,2.9663,3.57423,10.10742,3.57422a49.221,49.221,0,0,0,9.668-1.31836V324.269a59.298,59.298,0,0,1-15.60059,2.1836q-13.62378,0-20.54443-8.24024-6.92139-8.23974-6.92139-23.40039V221.09375H244.18359V205.3833h21.64307V176.59912Z"
		transform="translate(-18.56689 -16.03711)"
	/>
	<path
		class="c"
		d="M372.5376,326.45264q-24.17066,0-39.33106-15.875-15.16113-15.87451-15.16113-42.46289v-3.73536q0-17.68651,6.75635-31.585a52.71264,52.71264,0,0,1,18.89648-21.75293,47.51637,47.51637,0,0,1,26.3125-7.85546q23.17969,0,36.03516,15.271,12.854,15.27173,12.854,43.7251v8.46H338.37012q.438,17.57813,10.27246,28.39941,9.83056,10.82228,24.99365,10.82129,10.76587,0,18.23731-4.39453a45.81485,45.81485,0,0,0,13.07373-11.64551l12.41455,9.668Q402.41968,326.45362,372.5376,326.45264Zm-2.52686-106.56739a27.10994,27.10994,0,0,0-20.65429,8.95411q-8.35035,8.95532-10.32715,25.10351h59.5459v-1.53808q-.88038-15.49072-8.34961-24.00489Q382.75342,219.887,370.01074,219.88525Z"
		transform="translate(-18.56689 -16.03711)"
	/>
	<path
		class="c"
		d="M458.41943,205.3833l.65918,14.94141Q472.69947,203.186,494.67383,203.186q37.68164,0,38.01367,42.5166v78.55273H512.3623V245.59326q-.11131-12.854-5.87792-19.00635-5.76709-6.1516-17.9629-6.15234a29.32867,29.32867,0,0,0-17.35742,5.27344,35.79,35.79,0,0,0-11.646,13.84277v84.70459H439.19336V205.3833Z"
		transform="translate(-18.56689 -16.03711)"
	/>
	<path
		class="c"
		d="M737.11572,321.50342V165.80859h43.9502q20.31591,0,35.92969,8.98243a60.75517,60.75517,0,0,1,24.11328,25.55712q8.502,16.57619,8.6084,38.06836v9.94434q0,22.02978-8.501,38.60352a59.79954,59.79954,0,0,1-24.27442,25.45019q-15.7749,8.877-36.73144,9.08887ZM757.647,182.59717V304.71533h21.60059q23.73925,0,36.94629-14.76855,13.20409-14.77,13.20605-42.06348v-9.09766q0-26.54076-12.458-41.25781-12.45849-14.71654-35.34179-14.93066Z"
		transform="translate(-18.56689 -16.03711)"
	/>
	<path
		class="c"
		d="M976.937,182.59717H926.89209V321.50342h-20.4248V182.59717h-49.9375V165.80859H976.937Z"
		transform="translate(-18.56689 -16.03711)"
	/>
	<path
		class="c"
		d="M1156.10986,101.80078h-57.98925V90.2959L1125.48877,61.127a67.53564,67.53564,0,0,0,8.33789-10.74951,17.26964,17.26964,0,0,0,2.70117-8.71582q0-5.63524-2.84668-8.86084-2.84766-3.22559-8.13476-3.2251a11.08273,11.08273,0,0,0-8.97754,3.92237q-3.28272,3.92137-3.28321,10.31347H1096.436a27.72736,27.72736,0,0,1,3.68945-14.11963A25.99557,25.99557,0,0,1,1110.55518,19.669a31.70307,31.70307,0,0,1,15.28125-3.63184q13.07518,0,20.30859,6.27539t7.23437,17.72217a28.46068,28.46068,0,0,1-3.2539,12.7832q-3.25488,6.50831-11.15625,15.16553l-19.2334,20.27881h36.374Z"
		transform="translate(-18.56689 -16.03711)"
	/>
</svg>
