<svg xmlns="http://www.w3.org/2000/svg" viewBox="0 0 448.55237 446.26971"><defs><style>.a{fill:#457a62;}.b{fill:#7046c6;}.c{fill:#cb2a00;}.d{fill:#f9ce00;}.e{fill:#fff;}</style></defs><polygon class="a" points="149.993 0 0 0 0 149.993 46.545 149.993 46.545 46.545 149.993 46.545 149.993 0"/><polygon class="b" points="448.552 149.993 448.552 0 298.559 0 298.559 46.545 402.007 46.545 402.007 149.993 448.552 149.993"/><polygon class="c" points="298.559 446.27 448.552 446.27 448.552 296.277 402.007 296.277 402.007 399.725 298.559 399.725 298.559 446.27"/><polygon class="d" points="0 296.277 0 446.27 149.993 446.27 149.993 399.725 46.545 399.725 46.545 296.277 0 296.277"/><path class="e" d="M113.85173,301.8331V146.13827h43.9502q20.31591,0,35.92969,8.98242a60.75513,60.75513,0,0,1,24.11328,25.55713q8.502,16.57617,8.6084,38.06836v9.94434q0,22.02978-8.501,38.60351a59.7996,59.7996,0,0,1-24.27441,25.4502q-15.77491,8.877-36.73145,9.08887ZM134.383,162.92685V285.045h21.60059q23.73926,0,36.94629-14.76855,13.20409-14.77,13.20605-42.06348v-9.09766q0-26.54077-12.458-41.25781-12.45851-14.71656-35.3418-14.93066Z"/><path class="e" d="M353.673,162.92685H303.6281V301.8331H283.2033V162.92685H233.2658V146.13827H353.673Z"/><path class="b" d="M113.85173,301.8331V146.13827h43.9502q20.31591,0,35.92969,8.98242a60.75513,60.75513,0,0,1,24.11328,25.55713q8.502,16.57617,8.6084,38.06836v9.94434q0,22.02978-8.501,38.60351a59.7996,59.7996,0,0,1-24.27441,25.4502q-15.77491,8.877-36.73145,9.08887ZM134.383,162.92685V285.045h21.60059q23.73926,0,36.94629-14.76855,13.20409-14.77,13.20605-42.06348v-9.09766q0-26.54077-12.458-41.25781-12.45851-14.71656-35.3418-14.93066Z"/><path class="b" d="M353.673,162.92685H303.6281V301.8331H283.2033V162.92685H233.2658V146.13827H353.673Z"/></svg>